<svg width="86" height="66" viewBox="0 0 86 66" fill="none" xmlns="http://www.w3.org/2000/svg">
<path d="M69.9531 2.60878L30.8635 42.2976L16.8313 27.0811C15.9726 26.152 14.942 25.4036 13.7985 24.8788C12.655 24.3541 11.421 24.0633 10.1667 24.0228C8.91245 23.9823 7.66265 24.1929 6.4886 24.6428C5.31456 25.0927 4.23919 25.7733 3.32409 26.6452C2.40899 27.517 1.67182 28.5632 1.15499 29.7242C0.638152 30.8852 0.351819 32.1384 0.311931 33.4119C0.272043 34.6854 0.479389 35.9543 0.922519 37.1463C1.36565 38.3384 2.03572 39.4299 2.89441 40.359L23.7042 62.8444C24.5818 63.7923 25.6382 64.5512 26.8108 65.0757C27.9834 65.6002 29.2481 65.8797 30.5294 65.8974C33.0569 65.8866 35.477 64.8585 37.2589 63.0384L83.2692 16.3232C84.9178 14.4826 85.806 12.0687 85.75 9.58136C85.6941 7.09407 84.6982 4.72369 82.9686 2.96134C81.239 1.19899 78.9082 0.179815 76.4587 0.114215C74.0091 0.0486148 71.6285 0.941451 69.8098 2.60878H69.9531Z" fill="white"/>
</svg>
