<svg width="44" height="140" viewBox="0 0 44 140" fill="none" xmlns="http://www.w3.org/2000/svg">
<path d="M34.0783 139.999C31.5507 139.988 29.1306 138.96 27.3487 137.14C9.83801 119.308 0.0050354 95.1552 0.0050354 69.9747C0.0050354 44.7943 9.83801 20.6412 27.3487 2.80971C28.245 1.89968 29.3089 1.17796 30.48 0.685457C31.651 0.192955 32.9062 -0.0604858 34.1738 -0.0604858C35.4414 -0.0604858 36.6966 0.192955 37.8676 0.685457C39.0387 1.17796 40.1026 1.89968 40.9989 2.80971C41.8952 3.71973 42.6063 4.80028 43.0914 5.98928C43.5765 7.17829 43.8261 8.45214 43.8261 9.73911C43.8261 11.0261 43.5765 12.3005 43.0914 13.4895C42.6063 14.6785 41.8952 15.7591 40.9989 16.6691C27.0615 30.8585 19.2348 50.0806 19.2348 70.1203C19.2348 90.1599 27.0615 109.382 40.9989 123.571C42.3451 124.927 43.2632 126.659 43.6362 128.546C44.0091 130.434 43.8199 132.391 43.0929 134.169C42.3658 135.947 41.1337 137.465 39.5537 138.529C37.9737 139.593 36.1176 140.155 34.2216 140.144L34.0783 139.999Z" fill="white"/>
</svg>
