<svg width="44" height="140" viewBox="0 0 44 140" fill="none" xmlns="http://www.w3.org/2000/svg">
<path d="M9.92193 140C7.98356 140.073 6.06937 139.544 4.43421 138.485C2.79906 137.425 1.52049 135.886 0.768935 134.07C0.0173792 132.255 -0.171706 130.249 0.227096 128.322C0.625899 126.395 1.59364 124.636 3.00125 123.281C16.9387 109.092 24.7654 89.8699 24.7654 69.8303C24.7654 49.7906 16.9387 30.5685 3.00125 16.3791C2.11436 15.4786 1.41089 14.4098 0.930904 13.2332C0.450922 12.0567 0.203792 10.7959 0.203792 9.52245C0.203791 8.24898 0.450922 6.98761 0.930904 5.81108C1.41089 4.63454 2.11436 3.5657 3.00125 2.66522C3.88814 1.76474 4.94115 1.05078 6.09993 0.563448C7.25871 0.076112 8.50047 -0.174805 9.75472 -0.174805C11.009 -0.174805 12.251 0.0761117 13.4098 0.563448C14.5686 1.05078 15.6216 1.76474 16.5085 2.66522C34.0191 20.4967 43.8521 44.6498 43.8521 69.8303C43.8521 95.0107 34.0191 119.164 16.5085 136.995C14.7851 138.834 12.4202 139.913 9.92193 140Z" fill="white"/>
</svg>
