<svg width="20" height="20" viewBox="0 0 20 20" fill="none" xmlns="http://www.w3.org/2000/svg">
<path d="M19.7926 14.5233L17.5985 11.3175L17.5514 7.5528C17.5265 5.52468 16.6969 3.58951 15.2451 2.17306C13.7934 0.756607 11.8384 -0.025114 9.81027 -0.000152486C7.78214 0.0248091 5.84701 0.854434 4.43056 2.30619C3.01411 3.75794 2.23237 5.71288 2.25733 7.74101L2.29851 11.4999L0.180861 14.7587C0.0653547 14.9363 -5.76489e-06 15.1419 -0.00831216 15.3537C-0.0166185 15.5655 0.032433 15.7756 0.133666 15.9618C0.2349 16.148 0.384563 16.3034 0.566819 16.4116C0.749074 16.5197 0.957155 16.5767 1.16909 16.5764L6.46321 16.5116C6.47405 17.4405 6.85068 18.3277 7.5114 18.9807C8.17212 19.6337 9.06365 19.9999 9.99262 19.9998H10.0397C10.9747 19.9874 11.8667 19.6045 12.5196 18.935C13.1725 18.2656 13.533 17.3644 13.522 16.4293L18.8162 16.3645C19.0293 16.3624 19.2379 16.3024 19.4196 16.1909C19.6013 16.0794 19.7493 15.9206 19.8478 15.7316C19.9463 15.5425 19.9915 15.3302 19.9787 15.1174C19.9658 14.9046 19.8954 14.6992 19.775 14.5233H19.7926ZM10.8573 17.294C10.7491 17.4044 10.6201 17.4925 10.4778 17.5531C10.3354 17.6136 10.1826 17.6455 10.0279 17.6469C9.87323 17.6506 9.71942 17.6228 9.57582 17.5651C9.43223 17.5075 9.30186 17.4212 9.19263 17.3116C9.08217 17.2034 8.99413 17.0744 8.93357 16.9321C8.87301 16.7898 8.84111 16.6369 8.83969 16.4822H11.1926C11.1898 16.7859 11.0697 17.0768 10.8573 17.294ZM3.35733 14.194L4.47497 12.4822C4.59811 12.2867 4.66338 12.0603 4.66321 11.8293L4.61616 7.7116C4.60761 7.01636 4.73609 6.32623 4.99427 5.68064C5.25246 5.03505 5.63529 4.44666 6.12089 3.94904C6.6065 3.45141 7.18537 3.05432 7.82446 2.78043C8.46354 2.50654 9.15031 2.36123 9.84556 2.35279H9.91028C11.3032 2.35268 12.6401 2.90157 13.6311 3.88046C14.6221 4.85935 15.1874 6.18937 15.2044 7.58221L15.2573 11.6999C15.2597 11.9331 15.3314 12.1604 15.4632 12.3528L16.6397 14.0351L3.35733 14.194Z" fill="black"/>
</svg>
