<svg width="117" height="20" viewBox="0 0 117 20" fill="none" xmlns="http://www.w3.org/2000/svg">
<g clip-path="url(#clip0)">
<path d="M25.0318 11.0903L27.7777 14.0123C27.891 14.1354 28.0279 14.234 28.1801 14.3022C28.3323 14.3704 28.4967 14.4068 28.6633 14.4092C28.8299 14.4115 28.9952 14.3798 29.1493 14.3159C29.3033 14.252 29.4429 14.1573 29.5596 14.0375L35.6091 7.9655C35.8437 7.72915 35.9755 7.4086 35.9755 7.07435C35.9755 6.74011 35.8437 6.41956 35.6091 6.18321C35.3744 5.94687 35.0562 5.81409 34.7243 5.81409C34.3925 5.81409 34.0743 5.94687 33.8396 6.18321H33.8575L28.7185 11.3416L26.8743 9.36727C26.7607 9.24672 26.6252 9.14923 26.4751 9.0801C26.3248 9.01156 26.1625 8.97373 25.9976 8.96882C25.7495 8.96061 25.5045 9.02664 25.2936 9.15857C25.0827 9.2905 24.9153 9.48242 24.8126 9.71009C24.7448 9.86094 24.7073 10.0238 24.7022 10.1893C24.6964 10.3552 24.7237 10.5206 24.7824 10.6757C24.839 10.8285 24.9236 10.9691 25.0318 11.0903Z" fill="#7F08F6"/>
<path d="M23.086 2.65638C23.2142 2.34434 23.2142 1.99381 23.086 1.68178C22.9895 1.44872 22.8267 1.24967 22.618 1.10976C22.4094 0.969846 22.1642 0.895335 21.9135 0.895631C21.5793 0.897014 21.2592 1.03117 21.0226 1.26896C19.8827 2.41464 18.9784 3.77554 18.3614 5.27374C17.7443 6.77193 17.4267 8.378 17.4267 10C17.4267 11.622 17.7443 13.2281 18.3614 14.7263C18.9784 16.2245 19.8827 17.5854 21.0226 18.731C21.2591 18.9687 21.5795 19.1022 21.9135 19.1026L21.9331 19.1205C22.1825 19.1242 22.4271 19.0525 22.6356 18.9147C22.8441 18.7769 23.0067 18.5793 23.1026 18.3475C23.1985 18.1157 23.2233 17.8602 23.1736 17.6141C23.124 17.3679 23.0022 17.1425 22.8241 16.9667C21.9169 16.0551 21.1972 14.9721 20.7061 13.7799C20.215 12.5877 19.9622 11.3096 19.9622 10.0188C19.9622 8.72808 20.215 7.44999 20.7061 6.25777C21.1972 5.06555 21.9169 3.98262 22.8241 3.07099C22.9373 2.95124 23.0263 2.81041 23.086 2.65638Z" fill="#7F08F6"/>
<path d="M41.9882 9.9866C41.9875 8.36457 41.6696 6.75856 41.0526 5.26031C40.4357 3.76206 39.5317 2.40093 38.3923 1.25466C38.2159 1.07907 37.9921 0.959596 37.7488 0.91109C37.5055 0.862585 37.2534 0.887188 37.0239 0.981842C36.872 1.04605 36.7335 1.13862 36.6158 1.25466C36.5001 1.37212 36.4081 1.5111 36.345 1.66389C36.2817 1.81689 36.2492 1.98098 36.2492 2.1467C36.2492 2.31243 36.2817 2.47652 36.345 2.62952C36.4081 2.7823 36.5001 2.92129 36.6158 3.03874C37.523 3.95038 38.2427 5.03331 38.7338 6.22553C39.2249 7.41775 39.4777 8.69584 39.4777 9.9866C39.4777 11.2774 39.2249 12.5555 38.7338 13.7477C38.2427 14.9399 37.523 16.0228 36.6158 16.9345C36.4338 17.1114 36.3095 17.3399 36.2594 17.5896C36.206 17.8399 36.2309 18.1008 36.3307 18.3362C36.4288 18.5733 36.5967 18.7744 36.8118 18.9123C37.0268 19.0503 37.2787 19.1186 37.5335 19.108C37.8616 19.0957 38.1721 18.9554 38.3995 18.7167C39.5375 17.5702 40.4401 16.2091 41.0559 14.7112C41.6716 13.2133 41.9884 11.6079 41.9882 9.9866Z" fill="#7F08F6"/>
<path d="M13.6616 1.94389C12.466 0.809545 10.8106 0.233398 8.74366 0.233398H1.2865C1.11756 0.233398 0.950264 0.266918 0.794177 0.332042C0.63809 0.397166 0.496269 0.492619 0.376805 0.612952C0.257341 0.733286 0.162572 0.876145 0.0979188 1.03337C0.0332654 1.19059 -1.15881e-05 1.3591 -1.15881e-05 1.52928V18.6611C-0.00567635 18.9684 0.0995844 19.2673 0.296216 19.5024C0.492847 19.7374 0.767483 19.8926 1.06912 19.939C1.2414 19.9604 1.41622 19.9446 1.58203 19.8929C1.74784 19.8412 1.90088 19.7546 2.03105 19.6389C2.16121 19.5233 2.26554 19.3811 2.33715 19.2218C2.40877 19.0626 2.44604 18.8898 2.44651 18.715V12.9068H8.7401C10.8089 12.9068 12.4642 12.3307 13.6581 11.1963C14.8519 10.062 15.4649 8.50406 15.4649 6.56921C15.4649 4.63437 14.8609 3.08182 13.6616 1.94389ZM13.0184 6.57639C13.0184 7.83279 12.6442 8.81995 11.9083 9.52533C11.1724 10.2307 10.0569 10.5915 8.59933 10.5915H2.45007V2.58465H8.59933C10.0551 2.58465 11.1688 2.94362 11.9083 3.65079C12.6478 4.35796 13.0184 5.33795 13.0184 6.57639Z" fill="#7F08F6"/>
<path d="M60.6498 13.7988C60.431 13.7933 60.2151 13.8493 60.0262 13.9606C59.8373 14.0719 59.683 14.234 59.5806 14.4288C59.1202 15.2926 58.454 16.0277 57.642 16.5683C56.6299 17.2467 55.3362 17.5913 53.7949 17.5913C52.2892 17.5913 50.9884 17.2521 49.93 16.5808C48.8814 15.9227 48.0432 14.9743 47.5156 13.8491C46.9719 12.6363 46.6906 11.3209 46.6906 9.99016C46.6906 8.65947 46.9719 7.34401 47.5156 6.13123C48.0467 5.01206 48.8844 4.0692 49.93 3.41383C50.9991 2.74256 52.2892 2.40333 53.7949 2.40333C55.3362 2.40333 56.6316 2.74795 57.642 3.4264C58.4525 3.9674 59.1179 4.7017 59.5789 5.56406C59.6798 5.75388 59.8298 5.91275 60.0129 6.02392C60.196 6.13509 60.4055 6.19444 60.6193 6.19573C60.8331 6.19702 61.0433 6.14018 61.2277 6.03123C61.4122 5.92227 61.564 5.76522 61.6672 5.57663C61.7671 5.39827 61.8187 5.19661 61.8168 4.99186C61.8149 4.7871 61.7596 4.58644 61.6565 4.40997C61.3467 3.8756 60.9818 3.37566 60.5678 2.91845C59.7297 2.00238 58.7106 1.27302 57.576 0.777201C56.3242 0.241869 54.9747 -0.0228956 53.6149 2.82988e-05C51.6905 2.82988e-05 50.0048 0.454125 48.6025 1.34616C47.2131 2.2269 46.093 3.47811 45.3666 4.96099C44.6251 6.53489 44.2404 8.25521 44.2404 9.99734C44.2404 11.7395 44.6251 13.4598 45.3666 15.0337C46.093 16.5202 47.2151 17.7742 48.6078 18.6557C50.0084 19.5531 51.6958 20.0018 53.6203 20.0018C54.9782 20.0217 56.3252 19.7545 57.5742 19.2175C58.7119 18.7214 59.7317 17.9872 60.566 17.0637C60.9756 16.6084 61.338 16.1122 61.6476 15.5829C61.7511 15.4076 61.8067 15.2079 61.8089 15.004C61.8111 14.8 61.7597 14.5992 61.6601 14.4216C61.5613 14.2372 61.4158 14.0824 61.2383 13.973C61.0609 13.8636 60.8578 13.8035 60.6498 13.7988Z" fill="#7F08F6"/>
<path d="M80.5462 17.97L73.1995 8.12702L79.5323 2.12864C79.7076 1.96691 79.8297 1.75513 79.8822 1.52163C79.9348 1.28812 79.9153 1.04403 79.8264 0.821986C79.7561 0.638435 79.6421 0.475094 79.4944 0.346331C79.3467 0.217567 79.1699 0.127324 78.9795 0.0835394C78.7891 0.0397545 78.5909 0.0437682 78.4024 0.0952283C78.2139 0.146688 78.0408 0.244019 77.8984 0.378659L67.6098 10.0708V1.38018C67.6149 1.09063 67.525 0.807475 67.3539 0.574746C67.1827 0.342016 66.9401 0.172754 66.6636 0.0932783C66.4866 0.0460647 66.3012 0.0403799 66.1216 0.0766597C65.9421 0.11294 65.7732 0.190216 65.6279 0.302549C65.4827 0.414883 65.3649 0.55928 65.2838 0.72463C65.2026 0.889981 65.1601 1.07188 65.1597 1.25634V18.7148C65.1602 19.0417 65.2893 19.3551 65.5188 19.5862C65.7482 19.8174 66.0593 19.9474 66.3839 19.9479C66.7087 19.9479 67.0202 19.818 67.2501 19.5868C67.48 19.3556 67.6093 19.042 67.6098 18.7148V13.377L71.4034 9.807L78.5862 19.4525C78.7006 19.6054 78.8486 19.7295 79.0187 19.8152C79.1887 19.9008 79.3761 19.9456 79.5662 19.9461C79.7936 19.9458 80.0164 19.8817 80.2097 19.7612C80.403 19.6407 80.5593 19.4683 80.6609 19.2635C80.7626 19.0586 80.8057 18.8294 80.7855 18.6012C80.7652 18.3731 80.6824 18.1552 80.5462 17.9718V17.97Z" fill="#7F08F6"/>
<path d="M96.9502 17.3886H86.2892V11.191H95.7207C95.8777 11.1912 96.0332 11.1602 96.1782 11.0997C96.3233 11.0393 96.4551 10.9505 96.566 10.8386C96.677 10.7267 96.7648 10.5938 96.8247 10.4476C96.8845 10.3014 96.915 10.1447 96.9145 9.98661C96.9145 9.66815 96.7889 9.36273 96.5654 9.13755C96.3418 8.91236 96.0386 8.78585 95.7225 8.78585H86.2892V2.61337H96.9502C97.245 2.61843 97.5317 2.51549 97.7568 2.32369C97.982 2.13189 98.1303 1.86426 98.1743 1.57056C98.1947 1.40319 98.1797 1.23337 98.1301 1.07231C98.0806 0.911251 97.9976 0.762616 97.8868 0.636232C97.776 0.509847 97.6398 0.408588 97.4872 0.339146C97.3347 0.269704 97.1693 0.233663 97.0019 0.233398H85.033C84.8763 0.233398 84.7211 0.264515 84.5764 0.32497C84.4316 0.385426 84.3002 0.474034 84.1894 0.585724C84.0787 0.697415 83.9909 0.829998 83.9311 0.975888C83.8713 1.12178 83.8407 1.27811 83.8409 1.43594V18.5785C83.8409 18.8942 83.9654 19.1968 84.1869 19.42C84.4085 19.6432 84.709 19.7685 85.0223 19.7685H97.0019C97.1693 19.7683 97.3347 19.7322 97.4872 19.6628C97.6398 19.5933 97.776 19.4921 97.8868 19.3657C97.9976 19.2393 98.0806 19.0907 98.1301 18.9296C98.1797 18.7686 98.1947 18.5987 98.1743 18.4314C98.1303 18.1377 97.982 17.87 97.7568 17.6782C97.5317 17.4864 97.245 17.3835 96.9502 17.3886Z" fill="#7F08F6"/>
<path d="M115.5 0.233329H102.098C101.807 0.228348 101.524 0.33008 101.302 0.519597C101.079 0.709113 100.933 0.973506 100.89 1.26357C100.87 1.4289 100.885 1.59667 100.934 1.75577C100.983 1.91488 101.064 2.06171 101.174 2.18656C101.283 2.31142 101.418 2.41146 101.569 2.48007C101.719 2.54868 101.883 2.5843 102.048 2.58458H107.549V18.661C107.544 18.9683 107.649 19.267 107.845 19.5019C108.042 19.7369 108.316 19.8922 108.618 19.939C108.79 19.9603 108.965 19.9446 109.131 19.8928C109.296 19.8411 109.449 19.7545 109.579 19.6388C109.709 19.5231 109.813 19.3809 109.885 19.2216C109.956 19.0624 109.993 18.8896 109.994 18.7149V2.58458H115.446C115.737 2.58995 116.021 2.48835 116.243 2.29876C116.465 2.10918 116.611 1.84456 116.654 1.55433C116.674 1.3893 116.66 1.22185 116.611 1.06299C116.562 0.904135 116.48 0.757481 116.371 0.632684C116.262 0.507886 116.128 0.407772 115.978 0.338939C115.828 0.270107 115.665 0.234115 115.5 0.233329Z" fill="#7F08F6"/>
</g>
<defs>
<clipPath id="clip0">
<rect width="116.667" height="20" fill="white"/>
</clipPath>
</defs>
</svg>
