<svg width="20" height="20" viewBox="0 0 20 20" fill="none" xmlns="http://www.w3.org/2000/svg">
<path d="M20 10.3824V9.61763C19.9991 9.38301 19.928 9.15406 19.7959 8.96014C19.6638 8.76622 19.4768 8.61622 19.2588 8.52941L17.3059 7.74705C17.1664 7.29125 16.9832 6.84999 16.7588 6.42941L17.5882 4.49413C17.6809 4.27839 17.7069 4.03987 17.6629 3.80924C17.6188 3.57861 17.5068 3.36643 17.3412 3.2L16.8 2.65884C16.6336 2.49322 16.4214 2.38117 16.1908 2.33714C15.9601 2.29312 15.7216 2.31909 15.5059 2.41175L13.5706 3.24118C13.15 3.01685 12.7087 2.83365 12.2529 2.69413L11.4706 0.741182C11.3838 0.523211 11.2338 0.336182 11.0399 0.204109C10.8459 0.0720358 10.617 0.000946694 10.3823 0H9.61765C9.38303 0.000946694 9.15406 0.0720358 8.96014 0.204109C8.76622 0.336182 8.61622 0.523211 8.52941 0.741182L7.74707 2.69413C7.29127 2.83365 6.84999 3.01685 6.42941 3.24118L4.49413 2.41175C4.27839 2.31909 4.03987 2.29312 3.80924 2.33714C3.57861 2.38117 3.36643 2.49322 3.2 2.65884L2.65882 3.2C2.4932 3.36643 2.38117 3.57861 2.33714 3.80924C2.29312 4.03987 2.31911 4.27839 2.41177 4.49413L3.24118 6.42941C3.01685 6.84999 2.83363 7.29125 2.69411 7.74705L0.741182 8.52941C0.523211 8.61622 0.336164 8.76622 0.204091 8.96014C0.0720178 9.15406 0.000946694 9.38301 0 9.61763V10.3824C0.000946694 10.617 0.0720178 10.8459 0.204091 11.0399C0.336164 11.2338 0.523211 11.3838 0.741182 11.4706L2.69411 12.253C2.83363 12.7087 3.01685 13.15 3.24118 13.5706L2.41177 15.5059C2.31911 15.7216 2.29312 15.9601 2.33714 16.1908C2.38117 16.4214 2.4932 16.6336 2.65882 16.8L3.2 17.3412C3.36643 17.5068 3.57861 17.6188 3.80924 17.6629C4.03987 17.7069 4.27839 17.6809 4.49413 17.5883L6.42941 16.7588C6.84999 16.9832 7.29127 17.1663 7.74707 17.3059L8.52941 19.2588C8.61622 19.4768 8.76622 19.6638 8.96014 19.7959C9.15406 19.928 9.38303 19.9991 9.61765 20H10.3823C10.617 19.9991 10.8459 19.928 11.0399 19.7959C11.2338 19.6638 11.3838 19.4768 11.4706 19.2588L12.2529 17.3059C12.7087 17.1663 13.15 16.9832 13.5706 16.7588L15.5059 17.5883C15.7216 17.6809 15.9601 17.7069 16.1908 17.6629C16.4214 17.6188 16.6336 17.5068 16.8 17.3412L17.3412 16.8C17.5068 16.6336 17.6188 16.4214 17.6629 16.1908C17.7069 15.9601 17.6809 15.7216 17.5882 15.5059L16.7588 13.5706C16.9832 13.15 17.1664 12.7087 17.3059 12.253L19.2588 11.4706C19.4768 11.3838 19.6638 11.2338 19.7959 11.0399C19.928 10.8459 19.9991 10.617 20 10.3824ZM10 15.2941C8.95292 15.2941 7.92937 14.9836 7.05875 14.4019C6.18814 13.8202 5.50958 12.9933 5.10888 12.026C4.70818 11.0586 4.60334 9.99414 4.80761 8.96718C5.01189 7.94022 5.5161 6.99689 6.2565 6.2565C6.99689 5.5161 7.94022 5.01187 8.96718 4.8076C9.99414 4.60332 11.0586 4.70816 12.026 5.10886C12.9933 5.50956 13.8202 6.18814 14.4019 7.05875C14.9836 7.92937 15.2941 8.95292 15.2941 10C15.2941 11.4041 14.7363 12.7507 13.7435 13.7435C12.7507 14.7363 11.4041 15.2941 10 15.2941Z" fill="black"/>
</svg>
