<svg width="26" height="26" viewBox="0 0 26 26" fill="none" xmlns="http://www.w3.org/2000/svg">
<path d="M19.9888 14.2353C19.9913 14.1155 19.9734 13.9962 19.9358 13.8824L17.9829 7.89412C17.7904 7.33378 17.4256 6.84876 16.9405 6.50851C16.4555 6.16826 15.8753 5.99025 15.2829 6.00002H4.69464C4.10425 5.99275 3.52662 6.17191 3.04396 6.51199C2.5613 6.85207 2.19821 7.33571 2.0064 7.89412L0.0534509 13.8824C0.0158491 13.9962 -0.00203493 14.1155 0.000529797 14.2353V24.7882C-0.00419557 24.9457 0.022728 25.1024 0.0797319 25.2493C0.136736 25.3961 0.222662 25.5301 0.332382 25.6431C0.442101 25.7561 0.573397 25.8459 0.718483 25.9072C0.863569 25.9686 1.01949 26.0001 1.177 26H7.05935C7.21687 26.0001 7.37278 25.9686 7.51787 25.9072C7.66296 25.8459 7.79425 25.7561 7.90397 25.6431C8.01369 25.5301 8.09958 25.3961 8.15659 25.2493C8.21359 25.1024 8.24055 24.9457 8.23582 24.7882V21.153C8.2311 20.9955 8.25802 20.8387 8.31503 20.6919C8.37203 20.5451 8.45796 20.4112 8.56768 20.2982C8.67739 20.1852 8.80869 20.0953 8.95378 20.034C9.09886 19.9727 9.25478 19.9411 9.41229 19.9412H10.5888C10.7463 19.9411 10.9022 19.9727 11.0473 20.034C11.1924 20.0953 11.3237 20.1852 11.4334 20.2982C11.5431 20.4112 11.629 20.5451 11.686 20.6919C11.743 20.8387 11.77 20.9955 11.7652 21.153V24.7882C11.7605 24.9457 11.7874 25.1024 11.8444 25.2493C11.9014 25.3961 11.9874 25.5301 12.0971 25.6431C12.2068 25.7561 12.3381 25.8459 12.4832 25.9072C12.6283 25.9686 12.7842 26.0001 12.9417 26H18.8241C18.9816 26.0001 19.1375 25.9686 19.2826 25.9072C19.4277 25.8459 19.559 25.7561 19.6687 25.6431C19.7784 25.5301 19.8643 25.3961 19.9213 25.2493C19.9783 25.1024 20.0053 24.9457 20.0005 24.7882V14.2353H19.9888ZM8.02403 13.2059V8.2059H11.9652V13.2059H8.02403ZM15.8829 8.57649L17.3947 13.2059H14.1652V8.2059H15.2829C15.4076 8.19715 15.5318 8.22834 15.6376 8.29497C15.7434 8.36161 15.8252 8.46023 15.8711 8.57649H15.8829ZM4.11818 8.57649C4.16412 8.46023 4.24592 8.36161 4.35169 8.29497C4.45746 8.22834 4.58171 8.19715 4.70641 8.2059H5.82993V13.2059H2.60641L4.11818 8.57649ZM17.6476 23.5765H14.1182V21.153C14.1308 20.2033 13.7663 19.2874 13.1047 18.6059C12.4432 17.9245 11.5384 17.5331 10.5888 17.5176H9.41229C8.46266 17.5331 7.5579 17.9245 6.89632 18.6059C6.23473 19.2874 5.8703 20.2033 5.88288 21.153V23.5765H2.35347V15.5824H17.6476V23.5765Z" fill="black"/>
<path d="M15.846 3.50003V3.50004L15.846 5.85718H13.4888C12.9204 5.85718 12.3754 6.083 11.9736 6.48482C11.5718 6.88665 11.3459 7.43166 11.3459 8.00004C11.3459 8.56841 11.5718 9.11342 11.9736 9.51525C12.3754 9.91708 12.9204 10.1429 13.4888 10.1429H15.846V12.5C15.846 13.0684 16.0718 13.6134 16.4737 14.0153C16.8755 14.4171 17.4205 14.6429 17.9889 14.6429C18.5572 14.6429 19.1023 14.4171 19.5041 14.0153C19.9059 13.6134 20.1317 13.0684 20.1317 12.5V10.1429H22.4889C23.0572 10.1429 23.6023 9.91708 24.0041 9.51525C24.4059 9.11342 24.6317 8.56841 24.6317 8.00004C24.6317 7.43166 24.4059 6.88665 24.0041 6.48483C23.6023 6.083 23.0572 5.85718 22.4889 5.85718H20.1317L20.1317 3.50003C20.1317 3.50003 20.1317 3.50003 20.1317 3.50002C20.1317 2.93165 19.9059 2.38665 19.504 1.98482C19.1022 1.583 18.5572 1.35718 17.9888 1.35718C17.4205 1.35718 16.8755 1.583 16.4736 1.98482C16.0718 2.38665 15.846 2.93166 15.846 3.50003Z" fill="#7F08F6" stroke="#F2F1F6" stroke-width="2"/>
</svg>
